<?xml version="1.0" encoding="UTF-8" standalone="no"?>
<svg
   width="414"
   height="412"
   viewBox="0 0 414 412"
   fill="none"
   xmlns="http://www.w3.org/2000/svg">
  <rect
     x="0.25792623"
     y="156.32391"
     width="128"
     height="256"
     rx="15"
     fill="#a6c3e2"
     id="rect1" />
  <rect
     x="143.25792"
     y="0.32390738"
     width="128"
     height="412"
     rx="15"
     fill="#7bb0e9"
     id="rect2" />
  <rect
     x="286.25793"
     y="0.32390738"
     width="128"
     height="412"
     rx="15"
     fill="#3a86d7"
     id="rect3" />
  <path
     d="m 0.2582263,290.98391 c 0,-4.529 2.0459,-8.815 5.5668,-11.663 L 346.63193,3.6614075 c 2.67,-2.1594 6,-3.3375 9.433,-3.3375 h 43.268 c 8.288,0 15.005,6.7206 15,15.0079995 l -0.071,132.899003 c -0.002,4.774 -2.276,9.261 -6.125,12.085 l -339.417004,249.101 c -2.574,1.889 -5.683,2.907 -8.875,2.907 h -44.5869 c -8.2841997,0 -14.9999997,-6.716 -14.9999997,-15 z"
     fill="#30a9e2"
     id="path3" />
  <rect
     x="105.25793"
     y="104.32391"
     width="203"
     height="203"
     rx="20"
     fill="#4e9ef3"
     id="rect4" />
  <path
     d="m 205.94593,252.75591 c -3.84,0 -7.339,-0.469 -10.496,-1.408 -3.072,-0.939 -5.803,-2.133 -8.192,-3.584 -2.304,-1.451 -4.267,-2.944 -5.888,-4.48 -1.621,-1.536 -2.816,-2.944 -3.584,-4.224 -1.109,-1.536 -1.835,-2.901 -2.176,-4.096 -0.341,-1.195 -0.256,-2.347 0.256,-3.456 0.597,-1.195 1.664,-2.432 3.2,-3.712 1.536,-1.365 2.944,-2.048 4.224,-2.048 1.365,-0.085 2.645,0.299 3.84,1.152 1.28,0.853 2.517,2.048 3.712,3.584 2.048,2.731 4.352,4.693 6.912,5.888 2.56,1.109 5.12,1.664 7.68,1.664 3.328,0 6.229,-0.427 8.704,-1.28 2.475,-0.939 4.395,-2.304 5.76,-4.096 1.451,-1.792 2.176,-4.096 2.176,-6.912 0,-2.304 -0.725,-4.181 -2.176,-5.632 -1.365,-1.536 -3.2,-2.816 -5.504,-3.84 -2.304,-1.109 -4.907,-2.091 -7.808,-2.944 -2.816,-0.939 -5.675,-1.963 -8.576,-3.072 -2.048,-0.683 -4.096,-1.493 -6.144,-2.432 -2.048,-1.024 -3.968,-2.176 -5.76,-3.456 -1.707,-1.28 -3.243,-2.773 -4.608,-4.48 -1.28,-1.792 -2.304,-3.84 -3.072,-6.144 -0.768,-2.304 -1.152,-4.992 -1.152,-8.064 0,-4.864 1.195,-9.131 3.584,-12.8 2.389,-3.755 5.717,-6.699 9.984,-8.832 4.267,-2.219 9.131,-3.328 14.592,-3.328 3.499,0 6.613,0.341 9.344,1.024 2.816,0.597 5.205,1.408 7.168,2.432 2.048,0.939 3.712,1.92 4.992,2.944 1.365,0.939 2.347,1.749 2.944,2.432 1.963,1.963 3.029,3.627 3.2,4.992 0.256,1.28 -0.512,3.029 -2.304,5.248 -1.792,2.304 -3.541,3.584 -5.248,3.84 -1.621,0.171 -3.456,-0.512 -5.504,-2.048 -1.365,-1.451 -2.731,-2.603 -4.096,-3.456 -1.365,-0.939 -2.901,-1.621 -4.608,-2.048 -1.621,-0.427 -3.627,-0.64 -6.016,-0.64 -1.707,0 -3.371,0.256 -4.992,0.768 -1.536,0.427 -2.859,1.109 -3.968,2.048 -1.109,0.853 -2.005,1.92 -2.688,3.2 -0.597,1.28 -0.896,2.731 -0.896,4.352 0,2.219 0.597,4.053 1.792,5.504 1.28,1.365 2.987,2.517 5.12,3.456 2.133,0.853 4.523,1.664 7.168,2.432 2.645,0.768 5.333,1.579 8.064,2.432 2.816,0.939 5.589,2.048 8.32,3.328 2.731,1.28 5.163,2.901 7.296,4.864 2.133,1.877 3.84,4.267 5.12,7.168 1.28,2.816 1.92,6.272 1.92,10.368 0,4.693 -0.896,8.789 -2.688,12.288 -1.792,3.499 -4.224,6.357 -7.296,8.576 -3.072,2.219 -6.485,3.84 -10.24,4.864 -3.755,1.109 -7.552,1.664 -11.392,1.664 z"
     fill="#f0eada"
     id="path4" />
</svg>
